<svg xmlns="http://www.w3.org/2000/svg" width="60" height="29" viewBox="0 0 55 29" fill="none">
<g clip-path="url(#clip0_3731_21089)">
<circle cx="14.0938" cy="14" r="13.125" fill="#FC3F1D"/>
<path d="M15.9435 21.8882H18.6856V6.13818H14.6971C10.686 6.13818 8.57841 8.20041 8.57841 11.2371C8.57841 13.6619 9.73417 15.0896 11.7964 16.5626L8.21582 21.8882H11.1845L15.173 15.9281L13.7906 14.999C12.1137 13.8659 11.2978 12.9821 11.2978 11.0785C11.2978 9.40149 12.4763 8.2684 14.7198 8.2684H15.9435V21.8882Z" fill="white"/>
</g>
<rect x="28.9688" y="0.875" width="26.25" height="26.25" rx="9.84375" fill="#1E1E1E"/>
<path fill-rule="evenodd" clip-rule="evenodd" d="M42.586 4.09058L42.586 13.0545L49.8751 7.95064L50.4397 8.757L43.0755 13.9135L51.2268 17.7146L50.8108 18.6067L42.586 14.7714V23.8437H41.6016V19.6258L40.8692 23.7796L39.8998 23.6087L40.9414 17.7012L38.4264 23.0947L37.5342 22.6787L40.7595 15.7621L34.8695 20.7044L34.2367 19.9503L40.5816 14.6263L32.3304 15.3482L32.2446 14.3676L40.8672 13.6132L34.2367 8.04957L34.8695 7.2955L41.6016 12.9445L41.6016 4.09058L42.586 4.09058Z" fill="white"/>


<script xmlns=""/></svg>